<svg width="54" height="160" viewBox="0 0 54 160" fill="none" xmlns="http://www.w3.org/2000/svg">
<path d="M152.538 63.9595C150.355 62.6992 149.603 59.8934 150.863 57.7104C152.124 55.5274 154.929 54.7756 157.112 56.0359C159.295 57.2963 160.047 60.1021 158.787 62.2851C157.519 64.4816 154.721 65.2199 152.538 63.9595ZM145.102 85.9886C146.362 83.8055 145.61 80.9998 143.427 79.7394C141.244 78.479 138.438 79.2308 137.178 81.4139C135.918 83.5969 136.669 86.4026 138.852 87.663C141.036 88.9234 143.833 88.1851 145.102 85.9886ZM131.416 109.692C132.677 107.509 131.925 104.703 129.742 103.443C127.559 102.182 124.753 102.934 123.493 105.117C122.232 107.3 122.984 110.106 125.167 111.366C127.343 112.64 130.148 111.889 131.416 109.692ZM117.723 133.409C118.984 131.226 118.232 128.42 116.049 127.16C113.866 125.899 111.06 126.651 109.8 128.834C108.539 131.017 109.291 133.823 111.474 135.083C113.657 136.344 116.463 135.592 117.723 133.409ZM104.038 157.112C105.299 154.929 104.547 152.124 102.364 150.863C100.181 149.603 97.375 150.355 96.1146 152.538C94.8543 154.721 95.6061 157.527 97.7891 158.787C99.9721 160.047 102.778 159.295 104.038 157.112ZM135.083 48.5999C136.344 46.4168 135.592 43.6111 133.409 42.3507C131.226 41.0903 128.42 41.8421 127.16 44.0252C125.899 46.2082 126.651 49.014 128.834 50.2743C131.017 51.5347 133.815 50.7964 135.083 48.5999ZM121.398 72.3033C122.659 70.1203 121.907 67.3146 119.724 66.0542C117.541 64.7938 114.735 65.5456 113.475 67.7286C112.214 69.9117 112.966 72.7174 115.149 73.9778C117.332 75.2382 120.13 74.4999 121.398 72.3033ZM107.713 96.0068C108.973 93.8238 108.222 91.018 106.038 89.7576C103.855 88.4973 101.05 89.2491 99.7893 91.4321C98.5289 93.6151 99.2807 96.4209 101.464 97.6813C103.639 98.9551 106.445 98.2033 107.713 96.0068ZM94.02 119.724C95.2803 117.541 94.5285 114.735 92.3455 113.475C90.1625 112.214 87.3567 112.966 86.0963 115.149C84.836 117.332 85.5878 120.138 87.7708 121.398C89.9538 122.659 92.7596 121.907 94.02 119.724ZM80.3348 143.427C81.5951 141.244 80.8433 138.438 78.6603 137.178C76.4773 135.918 73.6715 136.669 72.4111 138.853C71.1508 141.036 71.9026 143.841 74.0856 145.102C76.2686 146.362 79.0744 145.61 80.3348 143.427ZM111.366 34.9069C112.627 32.7239 111.875 29.9181 109.692 28.6578C107.509 27.3974 104.703 28.1492 103.443 30.3322C102.182 32.5152 102.934 35.321 105.117 36.5814C107.314 37.8495 110.098 37.1034 111.366 34.9069ZM97.6812 58.6104C98.9416 56.4273 98.1898 53.6216 96.0068 52.3612C93.8237 51.1008 91.018 51.8526 89.7576 54.0357C88.4972 56.2187 89.249 59.0245 91.4321 60.2848C93.6286 61.553 96.4131 60.8069 97.6812 58.6104ZM83.996 82.3138C85.2564 80.1308 84.5046 77.3251 82.3216 76.0647C80.1385 74.8043 77.3328 75.5561 76.0724 77.7391C74.812 79.9222 75.5638 82.7279 77.7469 83.9883C79.9356 85.2699 82.7279 84.5104 83.996 82.3138ZM70.303 106.031C71.5634 103.848 70.8116 101.042 68.6286 99.7816C66.4456 98.5212 63.6398 99.273 62.3794 101.456C61.119 103.639 61.8708 106.445 64.0539 107.705C66.2504 108.973 69.0427 108.214 70.303 106.031ZM56.6178 129.734C57.8782 127.551 57.1264 124.745 54.9434 123.485C52.7604 122.225 49.9546 122.977 48.6942 125.16C47.4338 127.343 48.1856 130.148 50.3687 131.409C52.5652 132.677 55.3575 131.917 56.6178 129.734ZM87.6629 21.2217C88.9233 19.0387 88.1715 16.2329 85.9885 14.9725C83.8054 13.7122 80.9998 14.464 79.7394 16.647C78.479 18.8301 79.2307 21.6358 81.4138 22.8961C83.6103 24.1643 86.3948 23.4182 87.6629 21.2217ZM73.9777 44.9252C75.2381 42.7421 74.4863 39.9364 72.3033 38.676C70.1202 37.4156 67.3146 38.1675 66.0542 40.3505C64.7938 42.5335 65.5455 45.3392 67.7286 46.5996C69.9251 47.8678 72.7096 47.1217 73.9777 44.9252ZM60.2925 68.6286C61.5529 66.4456 60.8011 63.6398 58.6181 62.3795C56.435 61.1191 53.6294 61.8709 52.369 64.054C51.1086 66.237 51.8603 69.0427 54.0434 70.3031C56.2321 71.5847 59.0244 70.8251 60.2925 68.6286ZM46.5995 92.3456C47.8599 90.1625 47.1081 87.3568 44.9251 86.0964C42.7421 84.836 39.9364 85.5879 38.676 87.7709C37.4156 89.9539 38.1673 92.7596 40.3504 94.02C42.5469 95.2882 45.3392 94.5286 46.5995 92.3456ZM32.9143 116.049C34.1747 113.866 33.4229 111.06 31.2399 109.8C29.0569 108.539 26.2512 109.291 24.9908 111.474C23.7304 113.657 24.4821 116.463 26.6652 117.723C28.8617 118.992 31.654 118.232 32.9143 116.049ZM63.9595 7.53652C65.2199 5.35348 64.4681 2.54773 62.2851 1.28735C60.102 0.0269755 57.2963 0.778774 56.0359 2.96181C54.7755 5.14485 55.5273 7.95059 57.7104 9.21096C59.8934 10.4713 62.6914 9.73303 63.9595 7.53652ZM50.2743 31.24C51.5347 29.0569 50.7829 26.2512 48.5998 24.9908C46.4168 23.7304 43.6111 24.4822 42.3507 26.6653C41.0903 28.8483 41.8421 31.6541 44.0251 32.9144C46.2082 34.1748 49.0062 33.4365 50.2743 31.24ZM36.5891 54.9434C37.8495 52.7604 37.0977 49.9547 34.9146 48.6943C32.7316 47.4339 29.9259 48.1857 28.6655 50.3687C27.4051 52.5518 28.1569 55.3575 30.3399 56.6179C32.523 57.8783 35.321 57.14 36.5891 54.9434ZM22.8961 78.6604C24.1565 76.4773 23.4047 73.6716 21.2217 72.4112C19.0386 71.1508 16.2329 71.9026 14.9725 74.0857C13.7121 76.2687 14.4639 79.0745 16.647 80.3348C18.83 81.5952 21.6357 80.8434 22.8961 78.6604ZM9.21092 102.364C10.4713 100.181 9.7195 97.3751 7.53647 96.1147C5.35343 94.8543 2.54768 95.6061 1.2873 97.7891C0.0269279 99.9722 0.778724 102.778 2.96176 104.038C5.1448 105.299 7.95055 104.547 9.21092 102.364Z" fill="#E2BB3F"/>
</svg>
